<mxfile host="65bd71144e">
    <diagram id="R2lEEEUBdFMjLlhIrx00" name="Page-1">
        <mxGraphModel dx="701" dy="907" grid="1" gridSize="10" guides="1" tooltips="1" connect="1" arrows="1" fold="1" page="0" pageScale="1" pageWidth="850" pageHeight="1100" math="0" shadow="0" extFonts="Permanent Marker^https://fonts.googleapis.com/css?family=Permanent+Marker">
            <root>
                <mxCell id="0"/>
                <mxCell id="1" parent="0"/>
                <mxCell id="afeqcDMlSo8gVAj6lP-L-1" value="Users" style="rounded=1;whiteSpace=wrap;html=1;" parent="1" vertex="1">
                    <mxGeometry x="120" y="480" width="120" height="40" as="geometry"/>
                </mxCell>
                <mxCell id="afeqcDMlSo8gVAj6lP-L-2" value="Roles" style="rounded=1;whiteSpace=wrap;html=1;" parent="1" vertex="1">
                    <mxGeometry x="284" y="560" width="120" height="40" as="geometry"/>
                </mxCell>
                <mxCell id="afeqcDMlSo8gVAj6lP-L-3" value="Access" style="rounded=1;whiteSpace=wrap;html=1;" parent="1" vertex="1">
                    <mxGeometry x="524" y="560" width="120" height="40" as="geometry"/>
                </mxCell>
                <mxCell id="afeqcDMlSo8gVAj6lP-L-7" value="Time_Slots" style="rounded=1;whiteSpace=wrap;html=1;" parent="1" vertex="1">
                    <mxGeometry x="360" y="320" width="120" height="40" as="geometry"/>
                </mxCell>
                <mxCell id="afeqcDMlSo8gVAj6lP-L-8" value="time_checks" style="rounded=1;whiteSpace=wrap;html=1;" parent="1" vertex="1">
                    <mxGeometry x="600" y="320" width="120" height="40" as="geometry"/>
                </mxCell>
                <mxCell id="afeqcDMlSo8gVAj6lP-L-10" value="" style="rhombus;whiteSpace=wrap;html=1;" parent="1" vertex="1">
                    <mxGeometry x="190" y="560" width="40" height="40" as="geometry"/>
                </mxCell>
                <mxCell id="afeqcDMlSo8gVAj6lP-L-11" value="" style="rhombus;whiteSpace=wrap;html=1;" parent="1" vertex="1">
                    <mxGeometry x="444" y="560" width="40" height="40" as="geometry"/>
                </mxCell>
                <mxCell id="afeqcDMlSo8gVAj6lP-L-13" value="" style="rhombus;whiteSpace=wrap;html=1;" parent="1" vertex="1">
                    <mxGeometry x="280" y="400" width="40" height="40" as="geometry"/>
                </mxCell>
                <mxCell id="afeqcDMlSo8gVAj6lP-L-14" value="" style="rhombus;whiteSpace=wrap;html=1;" parent="1" vertex="1">
                    <mxGeometry x="520" y="320" width="40" height="40" as="geometry"/>
                </mxCell>
                <mxCell id="afeqcDMlSo8gVAj6lP-L-25" value="" style="endArrow=none;html=1;rounded=0;edgeStyle=orthogonalEdgeStyle;entryX=0;entryY=0.5;entryDx=0;entryDy=0;" parent="1" source="afeqcDMlSo8gVAj6lP-L-10" target="afeqcDMlSo8gVAj6lP-L-2" edge="1">
                    <mxGeometry relative="1" as="geometry">
                        <mxPoint x="-320" y="330" as="sourcePoint"/>
                        <mxPoint x="-160" y="330" as="targetPoint"/>
                    </mxGeometry>
                </mxCell>
                <mxCell id="afeqcDMlSo8gVAj6lP-L-26" value="1" style="resizable=0;html=1;align=right;verticalAlign=bottom;" parent="afeqcDMlSo8gVAj6lP-L-25" connectable="0" vertex="1">
                    <mxGeometry x="1" relative="1" as="geometry">
                        <mxPoint x="-4" as="offset"/>
                    </mxGeometry>
                </mxCell>
                <mxCell id="afeqcDMlSo8gVAj6lP-L-27" value="" style="endArrow=none;html=1;rounded=0;edgeStyle=orthogonalEdgeStyle;entryX=0.75;entryY=1;entryDx=0;entryDy=0;exitX=0.5;exitY=0;exitDx=0;exitDy=0;" parent="1" source="afeqcDMlSo8gVAj6lP-L-10" target="afeqcDMlSo8gVAj6lP-L-1" edge="1">
                    <mxGeometry relative="1" as="geometry">
                        <mxPoint x="-310" y="300" as="sourcePoint"/>
                        <mxPoint x="-150" y="300" as="targetPoint"/>
                    </mxGeometry>
                </mxCell>
                <mxCell id="afeqcDMlSo8gVAj6lP-L-28" value="N" style="resizable=0;html=1;align=right;verticalAlign=bottom;" parent="afeqcDMlSo8gVAj6lP-L-27" connectable="0" vertex="1">
                    <mxGeometry x="1" relative="1" as="geometry">
                        <mxPoint x="13" y="21" as="offset"/>
                    </mxGeometry>
                </mxCell>
                <mxCell id="afeqcDMlSo8gVAj6lP-L-29" value="" style="endArrow=none;html=1;rounded=0;edgeStyle=orthogonalEdgeStyle;entryX=0;entryY=0.5;entryDx=0;entryDy=0;exitX=1;exitY=0.5;exitDx=0;exitDy=0;" parent="1" source="afeqcDMlSo8gVAj6lP-L-11" target="afeqcDMlSo8gVAj6lP-L-3" edge="1">
                    <mxGeometry relative="1" as="geometry">
                        <mxPoint x="-386" y="380" as="sourcePoint"/>
                        <mxPoint x="-226" y="380" as="targetPoint"/>
                    </mxGeometry>
                </mxCell>
                <mxCell id="afeqcDMlSo8gVAj6lP-L-30" value="N" style="resizable=0;html=1;align=right;verticalAlign=bottom;" parent="afeqcDMlSo8gVAj6lP-L-29" connectable="0" vertex="1">
                    <mxGeometry x="1" relative="1" as="geometry">
                        <mxPoint x="-3" as="offset"/>
                    </mxGeometry>
                </mxCell>
                <mxCell id="afeqcDMlSo8gVAj6lP-L-31" value="" style="endArrow=none;html=1;rounded=0;edgeStyle=orthogonalEdgeStyle;entryX=1;entryY=0.5;entryDx=0;entryDy=0;exitX=0;exitY=0.5;exitDx=0;exitDy=0;" parent="1" source="afeqcDMlSo8gVAj6lP-L-11" target="afeqcDMlSo8gVAj6lP-L-2" edge="1">
                    <mxGeometry relative="1" as="geometry">
                        <mxPoint x="444" y="550" as="sourcePoint"/>
                        <mxPoint x="534" y="590" as="targetPoint"/>
                    </mxGeometry>
                </mxCell>
                <mxCell id="afeqcDMlSo8gVAj6lP-L-32" value="N" style="resizable=0;html=1;align=right;verticalAlign=bottom;" parent="afeqcDMlSo8gVAj6lP-L-31" connectable="0" vertex="1">
                    <mxGeometry x="1" relative="1" as="geometry">
                        <mxPoint x="11" as="offset"/>
                    </mxGeometry>
                </mxCell>
                <mxCell id="afeqcDMlSo8gVAj6lP-L-37" value="" style="endArrow=none;html=1;rounded=0;edgeStyle=orthogonalEdgeStyle;entryX=0.5;entryY=1;entryDx=0;entryDy=0;exitX=1;exitY=0.5;exitDx=0;exitDy=0;" parent="1" source="afeqcDMlSo8gVAj6lP-L-13" target="afeqcDMlSo8gVAj6lP-L-7" edge="1">
                    <mxGeometry relative="1" as="geometry">
                        <mxPoint x="-310" y="291" as="sourcePoint"/>
                        <mxPoint x="-150" y="291" as="targetPoint"/>
                    </mxGeometry>
                </mxCell>
                <mxCell id="afeqcDMlSo8gVAj6lP-L-38" value="N" style="resizable=0;html=1;align=right;verticalAlign=bottom;" parent="afeqcDMlSo8gVAj6lP-L-37" connectable="0" vertex="1">
                    <mxGeometry x="1" relative="1" as="geometry">
                        <mxPoint x="-2" y="17" as="offset"/>
                    </mxGeometry>
                </mxCell>
                <mxCell id="afeqcDMlSo8gVAj6lP-L-39" value="" style="endArrow=none;html=1;rounded=0;edgeStyle=orthogonalEdgeStyle;entryX=0.75;entryY=0;entryDx=0;entryDy=0;exitX=0;exitY=0.5;exitDx=0;exitDy=0;" parent="1" source="afeqcDMlSo8gVAj6lP-L-13" target="afeqcDMlSo8gVAj6lP-L-1" edge="1">
                    <mxGeometry relative="1" as="geometry">
                        <mxPoint x="-309" y="330" as="sourcePoint"/>
                        <mxPoint x="-149" y="330" as="targetPoint"/>
                    </mxGeometry>
                </mxCell>
                <mxCell id="afeqcDMlSo8gVAj6lP-L-40" value="1" style="resizable=0;html=1;align=right;verticalAlign=bottom;" parent="afeqcDMlSo8gVAj6lP-L-39" connectable="0" vertex="1">
                    <mxGeometry x="1" relative="1" as="geometry">
                        <mxPoint x="-2" as="offset"/>
                    </mxGeometry>
                </mxCell>
                <mxCell id="afeqcDMlSo8gVAj6lP-L-41" value="" style="endArrow=none;html=1;rounded=0;edgeStyle=orthogonalEdgeStyle;entryX=1;entryY=0.5;entryDx=0;entryDy=0;exitX=0;exitY=0.5;exitDx=0;exitDy=0;" parent="1" source="afeqcDMlSo8gVAj6lP-L-14" target="afeqcDMlSo8gVAj6lP-L-7" edge="1">
                    <mxGeometry relative="1" as="geometry">
                        <mxPoint x="-309.0000000000002" y="330" as="sourcePoint"/>
                        <mxPoint x="-149.00000000000023" y="330" as="targetPoint"/>
                    </mxGeometry>
                </mxCell>
                <mxCell id="afeqcDMlSo8gVAj6lP-L-42" value="1" style="resizable=0;html=1;align=right;verticalAlign=bottom;" parent="afeqcDMlSo8gVAj6lP-L-41" connectable="0" vertex="1">
                    <mxGeometry x="1" relative="1" as="geometry">
                        <mxPoint x="10" y="1" as="offset"/>
                    </mxGeometry>
                </mxCell>
                <mxCell id="afeqcDMlSo8gVAj6lP-L-43" value="" style="endArrow=none;html=1;rounded=0;edgeStyle=orthogonalEdgeStyle;entryX=0;entryY=0.5;entryDx=0;entryDy=0;exitX=1;exitY=0.5;exitDx=0;exitDy=0;" parent="1" source="afeqcDMlSo8gVAj6lP-L-14" target="afeqcDMlSo8gVAj6lP-L-8" edge="1">
                    <mxGeometry relative="1" as="geometry">
                        <mxPoint x="-310" y="291" as="sourcePoint"/>
                        <mxPoint x="-150" y="291" as="targetPoint"/>
                    </mxGeometry>
                </mxCell>
                <mxCell id="afeqcDMlSo8gVAj6lP-L-44" value="2" style="resizable=0;html=1;align=right;verticalAlign=bottom;" parent="afeqcDMlSo8gVAj6lP-L-43" connectable="0" vertex="1">
                    <mxGeometry x="1" relative="1" as="geometry">
                        <mxPoint x="-2" as="offset"/>
                    </mxGeometry>
                </mxCell>
                <mxCell id="7" value="" style="endArrow=none;html=1;rounded=0;edgeStyle=orthogonalEdgeStyle;entryX=1;entryY=0.5;entryDx=0;entryDy=0;exitX=0;exitY=0.5;exitDx=0;exitDy=0;" parent="1" source="11" target="afeqcDMlSo8gVAj6lP-L-1" edge="1">
                    <mxGeometry relative="1" as="geometry">
                        <mxPoint x="710" y="525" as="sourcePoint"/>
                        <mxPoint x="290" y="525" as="targetPoint"/>
                        <Array as="points">
                            <mxPoint x="540" y="500"/>
                            <mxPoint x="540" y="500"/>
                        </Array>
                    </mxGeometry>
                </mxCell>
                <mxCell id="8" value="1" style="resizable=0;html=1;align=right;verticalAlign=bottom;" parent="7" connectable="0" vertex="1">
                    <mxGeometry x="1" relative="1" as="geometry">
                        <mxPoint x="10" as="offset"/>
                    </mxGeometry>
                </mxCell>
                <mxCell id="9" value="" style="endArrow=none;html=1;rounded=0;edgeStyle=orthogonalEdgeStyle;entryX=0.5;entryY=1;entryDx=0;entryDy=0;exitX=0.5;exitY=0;exitDx=0;exitDy=0;" parent="1" source="11" target="afeqcDMlSo8gVAj6lP-L-8" edge="1">
                    <mxGeometry relative="1" as="geometry">
                        <mxPoint x="710" y="455" as="sourcePoint"/>
                        <mxPoint x="710" y="395" as="targetPoint"/>
                    </mxGeometry>
                </mxCell>
                <mxCell id="10" value="N" style="resizable=0;html=1;align=right;verticalAlign=bottom;" parent="9" connectable="0" vertex="1">
                    <mxGeometry x="1" relative="1" as="geometry">
                        <mxPoint x="13" y="21" as="offset"/>
                    </mxGeometry>
                </mxCell>
                <mxCell id="11" value="" style="rhombus;whiteSpace=wrap;html=1;" parent="1" vertex="1">
                    <mxGeometry x="640" y="480" width="40" height="40" as="geometry"/>
                </mxCell>
            </root>
        </mxGraphModel>
    </diagram>
</mxfile>